<svg id="Layer_1" data-name="Layer 1" xmlns="http://www.w3.org/2000/svg" viewBox="0 0 1173.82 188.84"><defs><style>.cls-1,.cls-2{fill:none;stroke:#000;stroke-miterlimit:10;}.cls-1{stroke-width:3px;}</style></defs><title>name</title><path d="M1077,353.59c2.18.29,4.43-1.08,6.39-1.89s4.18-1.5,5.91-2.82c1.93-1.47,2.95-3.87,1.61-6.16-1.11-1.9-4.21-3.1-6.16-1.61A16.11,16.11,0,0,1,1081,343c-1.1.46-3.38,1.65-4,1.57-2.41-.32-4.5,2.3-4.5,4.5,0,2.7,2.08,4.18,4.5,4.5Z" transform="translate(-95.43 -289.22)"/><path class="cls-1" d="M827,290.72a12.23,12.23,0,0,1,7.18,8.72c2,9.07,4.79,18.14,5.27,27.32,1.4,27,1.44,54,2.77,81,.77,15.59,3,31.11,4.59,46.66a13.66,13.66,0,0,0,.74,2.64c2.89,9.11,8.85,11.69,17.73,7.63,3.42-1.56,6.77-3.28,10.36-5,0,6.49-5.39,11.75-12.87,13.05-11.56,2-18.57-1.6-21.48-13A155.43,155.43,0,0,1,836.63,429c-1.33-27.9-1.49-55.85-2.83-83.75-.65-13.47-2.76-26.88-4.58-40.27-.33-2.46-2.47-4.67-3.77-7-1.81,1.79-4,3.33-5.38,5.41-8.79,13.52-13.8,28.65-16.65,44.3-3.58,19.61-5.9,39.44-8.94,59.15-1.32,8.54-2.94,17-4.7,25.51a14.37,14.37,0,0,1-3,5.86c-3.31,4-7.78,3.5-9.38-1.48-1.91-6-2.83-12.23-4.23-18.36-2.35-10.34-4.63-20.69-7.21-31-.45-1.81-2.27-3.27-3.46-4.89-1.42,1.6-3.6,3-4.14,4.84-2.92,10.05-5.43,20.22-8.08,30.35-1.56,6-3.08,11.91-4.68,17.85-.3,1.13-.61,2.51-1.41,3.19-1.5,1.27-3.43,3-5.05,2.89a6.22,6.22,0,0,1-4.36-3.66c-1.34-4.36-1.9-9-2.74-13.46-1.61-8.63-3.13-17.28-4.89-25.89-.31-1.5-1.6-2.8-2.44-4.19-1.28,1-3.06,1.82-3.77,3.16q-8.83,16.7-17.29,33.59c-2.41,4.8-4.27,9.89-6.76,14.65-4.32,8.29-10.15,8.85-16.25,1.64a54.21,54.21,0,0,1-11.81-25.88c-.68-3.78-.23-7.78,0-11.67.05-1.14,1-2.24,1.47-3.36h1.35c.63,2.68,1.37,5.34,1.88,8,2.07,11,5,21.53,13.14,29.8.54.55,1.15,1,2.19,2,1.31-2.21,2.64-4.09,3.61-6.15,5.12-10.94,9.9-22,15.31-32.83a101.48,101.48,0,0,1,9.67-14.83c2.12-2.85,5-5.1,9.13-4.24s5.54,4.2,6.28,7.73c2.22,10.51,4.25,21.07,6.36,31.61.1.48.28,1,1.35,1.69.59-1.82,1.29-3.61,1.75-5.47,2.93-11.69,5.69-23.42,8.78-35.06a27.73,27.73,0,0,1,3.84-8.14c4.34-6.46,11.43-6.53,14.62.45,3.34,7.31,5.57,15.22,7.55,23,2.08,8.25,3.26,16.72,4.87,25.09a3.2,3.2,0,0,0,1.74,2.12c1-5.71,2.08-11.41,2.94-17.15,4.08-27,5.71-54.39,13.66-80.63,3.36-11.09,8.38-21.75,13.56-32.16,2.09-4.2,6.6-7.2,10-10.74Z" transform="translate(-95.43 -289.22)"/><g id="m-path"><path d="M95.66,398.57a63.32,63.32,0,0,0,9,38.56c2.95,4.71,7.66,9.6,13.79,8.18,5.88-1.36,8.4-7.82,11.11-12.49a271.29,271.29,0,0,1,25-36.11c1.14-1.38,2.24-2.86,3.48-4.15a10.89,10.89,0,0,1,2.27-2.11l-.21.68c.82.69.9,3.83,1.16,5q.62,2.86,1.2,5.74,2.59,12.81,4.32,25.78c.53,4,4.48,5.8,7.68,3.18,9.53-7.79,10.69-20.33,14-31.36,1.5-4.95,4-12.36,9.78-13.64,4-.88,4,4.39,4.49,7.19l2.55,13.46,2.37,12.5c.64,3.4.75,7.73,2.52,10.79,3,5.19,9.24,3.9,12.59-.07,4.26-5.06,5.91-13.48,8.16-19.59,2.68-7.27,5.32-14.55,8.06-21.8,5.41-14.32,11.18-28.52,18.26-42.1a207.91,207.91,0,0,1,11.64-19.75c2.11-3.14,4.29-6.24,6.63-9.21.92-1.17,2.19-3.35,3.77-3.67s.7-.52,1.79.54c.71.69.91,2.33,1.13,3.22,2,7.92,2.14,16.72,2.5,24.85.39,8.73.38,17.48.18,26.22-.39,17.22-1.48,34.42-1.64,51.64-.14,15.7-1.58,36.54,9,49.56,4.07,5,10,8,16.48,7,6-.87,11.29-4.83,12.47-10.95,1.09-5.66-7.58-8.08-8.68-2.39-1.33,6.9-9.9,4.71-13.17.8-4.71-5.61-5.86-14-6.49-21-1.52-17-.45-34.31.23-51.33.7-17.48,1.46-35,.49-52.5-.44-7.85-.9-16-2.53-23.69-1.11-5.24-4.2-10.92-10.1-11.5-7-.69-11.28,6-14.92,10.88A186.29,186.29,0,0,0,254,333.48a316.22,316.22,0,0,0-19,40.43c-5.74,14.38-10.86,29-16.31,43.48-.6,1.61-1.11,3.32-1.87,4.86-.06.12-1.27,2.1-1.26,2.12l1.25.48q1.64,1.23,1.13,0c.44-1-1-5-1.21-6.29l-1.28-6.73c-1.6-8.45-2.72-17.2-4.86-25.53-1.65-6.43-6.71-10.63-13.52-9.35-6.17,1.16-10.77,5.73-13.63,11.1-6.1,11.44-4.72,27.79-15.33,36.46l7.68,3.18c-1-7.5-2.13-15-3.52-22.42-1.15-6.15-1.53-14.43-4.89-19.84-8.16-13.14-21.6,7.83-26,13.64s-8.53,11.64-12.45,17.7q-2.94,4.54-5.7,9.2c-1.57,2.66-3.05,6.78-5.22,9-3.26,3.33-5.81-2.7-7.19-5.26a52.48,52.48,0,0,1-4-9.81,57,57,0,0,1-2.07-21.29c.48-5.77-8.52-5.74-9,0Z" transform="translate(-95.43 -289.22)"/></g><path id="m" class="cls-1" d="M174.88,418.54c1.85-5.58,3.31-11.34,5.65-16.71,2.77-6.35,6.23-12.4,9.53-18.5a15.6,15.6,0,0,1,3.06-3.6c4.85-4.66,10.51-4.16,13.17,2a125.72,125.72,0,0,1,6.56,20.92c1.68,7.08,2.48,14.38,3.67,21.58l1,.35a60.14,60.14,0,0,0,3.2-6.26c6.15-16.32,11.67-32.9,18.46-49s14.41-31.8,22.5-47.25A39,39,0,0,1,274,308.63c8.56-5.82,14.57-2.94,16.29,7.25A118.68,118.68,0,0,1,292,336.7c-.32,32-1.19,64.05-1.31,96.08,0,8.31,1.83,16.65,3,24.94a18.64,18.64,0,0,0,2.16,5.47c2.91,5.74,6.67,7.47,13,6.16,1.62-.33,3.26-.55,4.89-.82.61,5.2-1.94,8.07-6.91,8-7.92-.07-13.9-3.32-17.35-10.75a57.67,57.67,0,0,1-5.29-25.25c.43-33.08,1.12-66.15,1.54-99.23.09-7.49-.33-15-.94-22.49-.19-2.26-1.3-5.31-3-6.3-1.25-.73-4.77.68-6.14,2.18a88.45,88.45,0,0,0-11.12,14.22c-10.37,17.61-17.49,36.71-24.66,55.76-4.53,12-8.91,24.11-13.5,36.11a48,48,0,0,1-4.14,8c-1.73,2.79-4.35,4.34-7.72,3.42-3.05-.83-3.55-3.59-4-6.22-1.34-8.42-2.41-16.89-4.07-25.25a100.54,100.54,0,0,0-4.48-15c-1.53-4.16-3.26-4.32-6-.73-6.49,8.49-10.05,18.36-13.14,28.45-1.69,5.5-3.34,11-5.54,16.34-.77,1.85-3.13,3-4.76,4.51-1.3-1.95-3.39-3.76-3.75-5.87-1.65-9.7-2.79-19.49-4.19-29.23a59.55,59.55,0,0,0-1.5-7.31c-1-3.57-2.84-4.19-5.66-1.78a23.36,23.36,0,0,0-4.45,5c-7.78,12-15.43,24.18-23.15,36.25a92.48,92.48,0,0,1-6.41,9.46c-5.6,6.73-13.26,6.34-17.28-1.46-3-5.73-4.57-12.21-6.29-18.49-.85-3.12-.66-6.54-.82-9.83-.15-3.08.84-5.66,4.53-7.74a34,34,0,0,1,.91,5.72,59.39,59.39,0,0,0,4.77,23.78,18.4,18.4,0,0,0,1.74,3.52c2.73,4,5.7,4.09,8.4.1,3.09-4.57,5.77-9.42,8.76-14.07,6.91-10.73,13.69-21.55,21-32a22.18,22.18,0,0,1,8.7-7c4.69-2.15,8.41-.31,9.88,4.64,1.75,5.89,2.82,12,4.06,18,.87,4.22,1.53,8.48,2.28,12.72Z" transform="translate(-95.43 -289.22)"/><path d="M302.07,397.81q3.47,16.1,7.82,32c1.85,6.72,4.86,19.87,14.74,13.48,3.74-2.42,6.34-6.93,9-10.41q4.82-6.33,9.35-12.86,4.8-6.92,9.27-14.05c1.15-1.83,6.71-11.38,8.94-6.5L369,394.9c-4.77-8.92-17.06-6.48-21.7,1.15-5.38,8.87-5.47,23.62-1.55,33,4.09,9.75,13.92,16.09,24.54,13.19,11.36-3.1,18.84-14,23.9-23.89,5.85-11.45,10.59-23.71,15.1-35.73,4.65-12.42,8.4-25.16,9.9-38.38,1-9.2,1.3-26.34-12.39-25.74-11.94.52-13.51,18.88-14.45,27.57-1.7,15.68-2.26,31.7-2.44,47.46a244.5,244.5,0,0,0,3.55,46.76c.72,4,6.35,4.16,8.22,1.07,4.76-7.84,5.74-16.8,8.78-25.29,1.28-3.57,3.08-7.3,6-9.85.76-.67,1.86-1.15,2.59-1.83l-1.92-.25.43,2.5a55.17,55.17,0,0,1,.08,8.47c-.3,8.43-.36,16.88,4.84,24,4.15,5.68,11,8.57,17.85,6.44,7.46-2.31,12.49-9.52,16.63-15.68,4.9-7.29,9.07-15.39,11-24,1.53-6.8,2.86-16.25-2.78-21.65-5.84-5.59-12.94-.68-15,5.75-2.89,9-3.56,19.41-3.35,28.83.16,7.27.82,15.26,4.91,21.53,3.82,5.86,10.62,9,17.55,7.22,8.22-2.11,13.89-9.42,18.52-16a141.26,141.26,0,0,0,21.56-48.35A144.51,144.51,0,0,0,513,357.39c.41-7.87,1.06-17.22-1.37-24.82-2-6.24-8.11-11.73-14.72-7.68s-7.73,15.19-9,21.94c-3.79,19.47-3.77,39.6-3.36,59.36C484.81,421,489.79,441.05,508,442c18.65.92,28.48-19.7,35.79-33.52,8.75-16.54,16.08-34.22,18.74-52.84,1-6.95,3.27-17.43-1.47-23.54-4.62-6-13.12-3.66-18,.78-5.81,5.33-7.9,13.53-9.55,20.94a210.88,210.88,0,0,0-4.41,29.86c-.74,9.76-1,19.68.39,29.4,1.17,8.18,3.46,17.64,9.86,23.4,12.94,11.64,32.3.84,42.48-9.29,7.06-7,22.74-28.44,9.93-37.07-6.73-4.54-13.9,1.07-16.92,7.19A38.77,38.77,0,0,0,572.19,422c3.28,14.43,20.14,26.35,33.91,16.76a18.19,18.19,0,0,0,7.77-18.22c-.88-5.71-9.55-3.28-8.68,2.39s-5.15,10.58-10.54,10.28c-6.18-.34-11.17-5.63-13.12-11.16-2.11-6-1.51-13.5.79-19.34.46-1.16,2.78-6.48,4.75-4.78,1.82,1.57-1.28,7.84-2,9.3-4.69,10-13.1,18.72-23.29,23.09-5.78,2.48-13.07,3.55-17.57-1.78s-5.66-13.81-6.26-20.36c-1.33-14.36.05-29.32,2.56-43.46,1-5.9,2.1-12,4.15-17.66a18.93,18.93,0,0,1,4.31-7.4c2.5-2.36,5.38-3,5.7,1.14,1,13.14-3.47,27.64-8,39.79a227.28,227.28,0,0,1-17.58,35.73c-5.65,9.57-18.5,24.4-29.48,12.18-8.57-9.54-6.26-26.06-6.22-37.87,0-14.13.5-28.39,3.3-42.28.73-3.63,1.6-7.24,2.67-10.78a20.87,20.87,0,0,1,1-3c.87-1.79.75-2.19,2-.9,1.51,1.52,1.33,5.26,1.47,7.23q.41,5.77.32,11.56a134.19,134.19,0,0,1-21.86,71.06c-3.29,5-7,11-12.38,14-6.24,3.52-10.76-.43-12.63-6.53-1.58-5.13-1.61-10.7-1.54-16a96.81,96.81,0,0,1,.89-12c.43-3.09.69-7.79,2.16-10.62.87-1.68.15-2,.91-.18a11.83,11.83,0,0,1,.38,5,42.64,42.64,0,0,1-2.22,11.08c-2.27,6.89-6,13.23-10.21,19.12-3.11,4.4-9,12.64-15.33,9-6.12-3.54-6.05-12.46-5.88-18.45s1.62-15.13-2.57-20.07-10.14-1.49-13.86,2c-10.5,9.79-9.1,25.36-16.15,37l8.22,1.07c-3.53-19.37-3.65-39.1-2.82-58.71.41-9.8.88-19.63,1.69-29.4a84.06,84.06,0,0,1,2-13.48c.49-2,1-5.35,2.32-6.91,2.32-2.66,4.46-1.06,5.18,2.08,1,4.38.07,9.6-.5,14A120.37,120.37,0,0,1,407.06,360a227.38,227.38,0,0,1-9.17,27c-3.37,8.45-6.73,17-10.75,25.15-3.7,7.5-8.38,15.92-16,20-10.6,5.6-18-4.17-18.74-14.06A41.06,41.06,0,0,1,353.61,404c.69-2.3,5.07-9.22,7.58-4.51,2.77,5.19,10.14.63,7.77-4.54-3.23-7.06-12.41-6.89-17.71-2.45-3.36,2.82-5.46,6.88-7.78,10.53q-4.51,7.11-9.35,14-4.67,6.66-9.64,13.1c-.61.79-4.48,5.25-3.61,5.46-.62-.15-1.83-6.41-2.06-7.24q-4.53-16.32-8.07-32.89c-1.22-5.66-9.9-3.26-8.68,2.39Z" transform="translate(-95.43 -289.22)"/><path d="M314.88,357.11a15.76,15.76,0,0,0-4.49,4,16.55,16.55,0,0,0-1.37,2.12c-.18.33-.36.66-.57,1,.42-.63-.06,0-.33.23a4.52,4.52,0,0,0,0,6.36,4.61,4.61,0,0,0,6.36,0,14.69,14.69,0,0,0,2.77-3.86c.08-.14.59-.87.11-.25a7.83,7.83,0,0,1,.71-.77c.18-.18.72-.65.24-.27a10.12,10.12,0,0,1,1.11-.72,4.5,4.5,0,1,0-4.54-7.77Z" transform="translate(-95.43 -289.22)"/><path class="cls-2" d="M537.74,401.84c0-5.31-.27-10.14.05-14.92.75-11.12,1-22.35,3-33.26,1-5.61,5.12-10.73,8.19-15.86.64-1.07,3.24-2,4.28-1.53s2.21,2.69,2.24,4.17a109,109,0,0,1-16.37,60.37C539,401.08,538.6,401.22,537.74,401.84Z" transform="translate(-95.43 -289.22)"/><path class="cls-2" d="M493,405.94c0-1.66,0-3.32,0-5,.53-17.76.85-35.52,1.76-53.26.24-4.72,2.08-9.42,3.7-13.95a5,5,0,0,1,4.22-2.41c1.17.2,2.77,2.47,2.83,3.88.85,22.31-.11,44.42-8.76,65.47-.78,1.89-1.73,3.71-2.6,5.56Z" transform="translate(-95.43 -289.22)"/><path class="cls-2" d="M399.3,386.68c0-12.26-.43-23.52.16-34.72.35-6.61,2.26-13.14,3.61-19.68a8.76,8.76,0,0,1,1.82-3.89,5.31,5.31,0,0,1,3.45-1.9,3.65,3.65,0,0,1,2.73,2.27c.63,4.11,1.56,8.38,1.07,12.44a168.61,168.61,0,0,1-11.37,43.67A13.75,13.75,0,0,1,399.3,386.68Z" transform="translate(-95.43 -289.22)"/><path class="cls-2" d="M460.24,388.48c.74,11,.87,20.95-4.47,30.57C451.88,412.69,454.43,393.61,460.24,388.48Z" transform="translate(-95.43 -289.22)"/><path class="cls-2" d="M578.61,419.88c-.65-9.5,1.61-17.28,7.36-24.21C590.75,400.83,587.58,411.08,578.61,419.88Z" transform="translate(-95.43 -289.22)"/><path d="M663.31,406.18A214.54,214.54,0,0,0,674,440.86c2.53,6.14,10.12,17.86,18.54,12.91,2.17-1.28,3.2-4.45,4.35-6.55q2.26-4.13,4.44-8.3,4.14-7.93,8-16c4.56-9.54,8.24-21.7,17.07-28.27L721,394c5.74,5.24,7.08,12.79,7.67,20.22.56,7-.1,16.88,4.09,23,4,5.78,10.19,3.76,13.25-1.53,3.81-6.57,4.05-14.35,4.93-21.68,1-8.66,4.32-16.3,8.38-23.94.74-1.39,1.54-4,2.76-5,1.68-1.36,1.1-1.4,2.21.87a58,58,0,0,1,4,12c1.9,7.94,2.77,16.07,4.24,24.09,1.19,6.5,2.15,15.24,8.72,18.61a4.63,4.63,0,0,0,6.16-1.61c6.59-9.75,6.77-21.66,7.74-33q1.78-20.79,5.63-41.33a334.42,334.42,0,0,1,9-37.83,70.69,70.69,0,0,1,6.47-15.24c2.2-3.71,6.66-10.61,11.35-11.26l-3.47-.45c2.13,1,3.15,7.51,3.68,9.63a88.52,88.52,0,0,1,2,11.67c.85,7.65,1.23,15.37,1.76,23,1.12,16.28,2.17,32.57,2.87,48.87.68,15.9.21,32,2.15,47.8,1.35,11,3.16,30.27,16.19,33.74,14.89,4,28.43-12.18,35.54-23.09,3.17-4.87-4.62-9.38-7.77-4.54-4.18,6.41-20.78,27.58-29,16.22-3.27-4.49-4.18-11.88-5.13-17.23a151,151,0,0,1-1.94-20.63c-1-26.43-1.91-52.8-3.72-79.2-.85-12.42-1.09-25.18-3.83-37.37-1.05-4.7-2.35-10.79-5.48-14.59-3.54-4.31-8.24-2.5-12,.37-17,12.87-21,37.9-25.18,57.39-3,14.08-5.27,28.31-6.88,42.62-1.45,12.9-.08,28.65-7.64,39.83l6.16-1.61c-3.14-1.61-3.46-7.54-4.09-10.66-.81-4-1.42-8.05-2.05-12.09-1.25-8-2.53-16.06-5.44-23.65-2.09-5.45-5.38-13.25-12.63-11.82-6.48,1.28-9.53,9.73-12.11,14.9a69.93,69.93,0,0,0-7.25,22.09c-.52,3.89-.71,7.84-1.44,11.71a34,34,0,0,1-1.14,4.61,15.38,15.38,0,0,1-1.42,3.24q2.63,1,1.07-1.64c0-1.74-.79-4.32-1-6-.25-2.45-.37-4.9-.54-7.36a88.3,88.3,0,0,0-1.3-11.11c-1.32-6.57-4.13-12.74-9.14-17.31-1.34-1.23-3.83-1.91-5.45-.7-8.75,6.51-13,15.89-17.5,25.54q-8.3,17.95-18,35.2l2.69-2.07c-5.56.78-9.35-14.76-10.5-18.15a226.76,226.76,0,0,1-6.6-23.62c-1.27-5.65-9.94-3.26-8.68,2.39Z" transform="translate(-95.43 -289.22)"/><path d="M863.81,439.94a83,83,0,0,0,33.51-33.49c3.37-6.3,8.26-15.3,6.28-22.66-1.83-6.77-9.31-9.7-15.71-7.9-15.84,4.46-15.55,29.07-11.46,41.3,4.87,14.55,18.8,29.51,34,17.35C924.89,422.91,933.78,402.9,937,385c.59-3.32-2-6.46-5.54-5.54l-6.54,1.71,2.39,8.68c5.08-1.88,9.07,2.93,10.19,7.51,1.42,5.81,0,12,.08,17.92.06,8.13,2.86,17.45,10.67,21.34,8.52,4.25,17.33-.81,23.14-7.11a83.39,83.39,0,0,0,16.2-25.64c2.7-7.05,4.53-18.8-4.11-22.72-8.14-3.69-14.38,4.18-16,11.36-2.89,12.54-2.94,48.07,17.92,45.29,11.38-1.52,17.52-14.28,22.84-22.94,3.55-5.79,6.9-11.77,10.72-17.39,2.1-3.08,9-10.5,12-4.21l7.77-4.54c-6.43-8.55-18.89-8-26.14-.5-4.07,4.19-6,10.05-6.82,15.69-1,6.34-1.85,14-.15,20.24,1.39,5.16,5.58,9.94,11.16,10.41,6.19.53,10.51-4.18,13.12-9.24,6.4-12.4,10.57-26.52,13.43-40.11a187.69,187.69,0,0,0,4-44.36c-.16-5.25-.3-11.92-6.29-13.9-5.63-1.87-10.84,2.36-12.69,7.41-2.26,6.16-2.45,13.72-2.84,20.21a149.55,149.55,0,0,0,.3,22c1.24,14.12,3.82,29.38,10,42.28,5.87,12.34,21.31,18.47,30.53,5.81,4.48-6.15,7.33-13.93,9.87-21.05a135,135,0,0,0,6.12-24.39l-8.68-2.39a193.52,193.52,0,0,0-2.3,26.51c-.08,6.07.33,12.45,3.06,18,6.65,13.43,22.25,10.2,30.54.31,19.32-23.05,11.79-57.7,15.32-85.15h-9q-1.84,27-2.44,54c-.27,12.5-2.6,31.85,12.41,37.13,14,4.9,23.68-13.34,28.54-23.4,6.8-14.09,12.69-29.73,15.68-45.11,3.19-16.47,2-34.37-8.25-48.25-2-2.71-7.54-3.18-8.22,1.07-5.91,36.65-2.21,74.34-.72,111.22.24,5.94,8.29,5.61,9,0a37.05,37.05,0,0,1,4.52-13.6c.59-1,1.79-2.24,2.14-3.38.07-.22-1.23-2.27-.07.14,1,2,1.82,4.06,2.84,6,3.94,7.61,9.49,14.7,16.84,19.28,12.72,7.94,31.64,6,39.4-7.88,2.83-5.06-4.94-9.6-7.77-4.54-4,7.15-12.83,9.48-20.48,7.56-9.13-2.29-15.62-10.33-19.86-18.27-2.92-5.48-7.49-17.07-15.63-10.47-6.9,5.59-9.86,16.78-10.93,25.13h9c-1.46-36-5.37-73.08.4-108.83l-8.22,1.07c10.12,13.66,10.09,30.9,6.12,46.8-3.91,15.66-9.73,32.56-18.37,46.28-3.29,5.22-10.2,15.89-16.55,8-5-6.19-3-17.69-2.82-25q.57-27.51,2.47-55c.4-5.89-8.28-5.58-9,0-2.9,22.55,1.6,47-7,68.56-2.1,5.25-5.09,10.77-9.73,14.17s-9.86,3.06-12.34-2.43c-2.14-4.74-1.92-10.33-1.8-15.4a176.67,176.67,0,0,1,1.94-22.16c.85-5.65-7.78-8.12-8.68-2.39a133.38,133.38,0,0,1-7.37,27.76c-2.38,6.1-7.34,22.38-16.6,17.24-7.59-4.21-9.63-17.09-11.46-24.72a143.8,143.8,0,0,1-3.91-30.62q-.14-6.88.36-13.76c.36-4.86.27-10.9,2.26-15.4,1.46-3.31,1.28-.18,1.38,1.71.13,2.41.15,4.83.15,7.24q0,7.69-.64,15.37a174.41,174.41,0,0,1-14.67,57c-.8,1.77-1.8,4.7-3.44,5.89-3.11,2.25-5-.88-5.56-3.88-.89-4.61-.24-10.36.44-15,.65-4.45,2-9.59,5.85-12.36,2.76-2,8.13-3.32,10.55-.09,3.44,4.58,10.34.77,7.77-4.54-2.74-5.68-9.64-7.84-15.51-6.16-7.75,2.22-11.87,10-15.78,16.33-5,8.17-9.48,17.6-15.81,24.83-2.09,2.39-5.38,5.85-8.93,5.19-4-.73-5.25-5.8-6-9.11a69.74,69.74,0,0,1-1.31-14.09c0-4.25-.26-9.25,1.41-13.25.33-.79,1.21-3.11,2.27-3.14,1.61,0,1.73,2.51,1.79,3.73.2,4.3-2.08,9-4,12.7-3.79,7.15-8.74,15.59-15.21,20.63-7.75,6-14,.32-14.94-8.16-1.06-9.28,2.36-19-2.21-27.79-3.65-7-11.69-12.17-19.59-9.24-5.35,2-3.31,10.17,2.39,8.68l6.54-1.71-5.54-5.54c-2.71,15.25-9.29,29.9-19.83,41.37-2.29,2.49-5,5.36-8.41,6.1-3.91.83-7-1.93-9.28-4.78a36.66,36.66,0,0,1-7.69-21.84c-.13-5.46.74-17.87,7.85-19,8.56-1.39.33,14.28-1.36,17.45a74.41,74.41,0,0,1-30.29,30.26c-5.09,2.76-.55,10.54,4.54,7.77Z" transform="translate(-95.43 -289.22)"/><path d="M1003.52,378.53c8.08.76,16-.86,23.78-2.75a167.57,167.57,0,0,1,25.67-4.41c17.19-1.42,34.57-1.2,51.81-1.31,34.65-.21,69.31-.19,104-.27,9.76,0,19.52-.06,29.28,0,9.41.06,19,.75,28.09-2.06,5.52-1.7,3.16-10.39-2.39-8.68-8,2.47-16.44,1.8-24.72,1.74-8.78-.07-17.57,0-26.35,0l-51.74.12c-34,.08-68.27-.88-102.23,1.07a168.5,168.5,0,0,0-26.58,3.42c-9.5,2.09-18.72,5.06-28.56,4.13-5.76-.54-5.73,8.46,0,9Z" transform="translate(-95.43 -289.22)"/></svg>